<svg width="2876" height="826" viewBox="0 0 2876 826" fill="none" xmlns="http://www.w3.org/2000/svg">
<path d="M24.6965 450.882H24V427.664H24.6965C24.9936 427.848 25.2454 428.097 25.433 428.392C25.6206 428.686 25.7392 429.02 25.78 429.367C26.5043 436.106 26.5043 442.904 25.78 449.644C25.718 449.963 25.5895 450.266 25.4029 450.533C25.2162 450.799 24.9755 451.024 24.6965 451.192V450.882Z" fill="#C2CBE7"/>
<path d="M501.899 801.78H480.616C480.531 801.7 480.464 801.604 480.418 801.498C480.372 801.391 480.349 801.277 480.349 801.161C480.349 801.045 480.372 800.93 480.418 800.824C480.464 800.717 480.531 800.621 480.616 800.541C487.448 799.304 494.447 799.304 501.28 800.541C501.41 800.559 501.536 800.604 501.648 800.674C501.76 800.744 501.856 800.837 501.929 800.947C502.002 801.057 502.051 801.181 502.073 801.311C502.094 801.441 502.088 801.575 502.053 801.702L501.899 801.78Z" fill="#80D1E4"/>
<path d="M480.616 800.928V801.779H472.877C472.954 801.553 472.954 801.308 472.877 801.082C473.941 800.131 475.319 799.604 476.747 799.604C478.174 799.604 479.552 800.131 480.616 801.082V800.928ZM501.977 801.779V801.005C503.033 800.037 504.414 799.5 505.846 799.5C507.279 799.5 508.66 800.037 509.716 801.005C509.639 801.231 509.639 801.476 509.716 801.702L501.977 801.779Z" fill="#B3E1ED"/>
<path d="M24.6934 450.883V427.665C26.0789 363.608 42.6573 300.796 73.0639 244.399C133.817 132.876 227.153 62.6802 350.053 33.8127C388.099 25.1379 427.226 22.1902 466.143 25.0673C553.084 30.7394 636.025 63.6724 703.177 119.185C770.329 174.697 818.274 249.965 840.196 334.288C862.119 418.611 856.905 507.699 825.293 588.888C793.682 670.078 737.283 739.237 664.114 786.536C659.47 789.554 659.47 789.632 656.374 784.756L644.765 766.337C644.765 764.17 646.545 763.705 648.016 763.086C671.161 751.6 692.899 737.472 712.794 720.984C764.748 678.004 802.98 620.751 822.769 556.292C829.595 534.149 834.235 511.39 836.622 488.341C838.337 470.854 838.777 453.265 837.938 435.714C837.14 416.068 834.55 396.535 830.199 377.36C823.514 348.652 813.161 320.924 799.396 294.859C786.492 269.824 770.615 246.437 752.109 225.205C732.446 202.551 709.856 182.615 684.932 165.922C641.284 136.823 591.626 117.96 539.666 110.741C516.931 107.558 493.942 106.573 471.018 107.8C436.57 109.607 402.619 116.815 370.407 129.161C286.077 160.691 217.233 223.654 178.318 304.843C172.54 317.277 167.38 329.995 162.84 342.997C161.834 345.783 162.84 346.944 165.471 347.873L238.917 371.555C246.656 373.877 254.396 376.431 261.748 379.295C263.296 379.836 264.921 380.378 265.231 382.39C265.283 383.899 265.019 385.401 264.457 386.802C258.237 409.014 254.575 431.864 253.544 454.907C252.565 484.059 256.063 513.187 263.915 541.278C264.986 543.355 265.235 545.759 264.611 548.011L92.0252 656.361C88.7747 658.451 87.6138 658.141 85.679 654.891C55.7304 606.067 36.2053 551.576 28.3308 494.842C26.3089 480.267 25.0946 465.592 24.6934 450.883Z" fill="#2469B2"/>
<path d="M264.457 381.306C253.312 376.739 241.626 373.566 230.249 369.851L164.078 348.568C160.595 347.485 160.595 346.247 161.679 343.306C180.637 287.055 213.627 236.569 257.531 196.619C301.435 156.67 354.802 128.577 412.587 114.997C429.896 111.025 447.494 108.437 465.214 107.257C480.676 106.258 496.187 106.258 511.65 107.257C585.529 111.568 656.115 139.301 713.17 186.434C770.225 233.567 810.782 297.649 828.961 369.387C837.235 402.879 840.572 437.399 838.867 471.855C835.734 532.854 816.579 591.95 783.331 643.187C750.083 694.424 703.918 735.993 649.486 763.704L644.843 766.335L613.886 779.183C588.938 788.649 562.961 795.144 536.493 798.531L509.096 801.162H472.876C468 801.162 463.047 800.311 458.171 800.311C456.004 800.311 455.54 799.227 455.772 797.447L463.511 720.054C465.472 702.46 467.355 684.892 469.161 667.35L471.328 650.865C473.031 650.014 474.346 650.865 475.662 652.181C502.873 670.027 533.864 681.296 566.182 685.097C598.5 688.899 631.26 685.128 661.869 674.083C663.322 673.239 664.99 672.836 666.668 672.922C668.835 673.464 669.609 675.244 670.615 676.869L684.391 698.849C687.332 703.647 687.719 703.647 692.13 700.551C712.876 686.751 731.715 670.279 748.162 651.562C764.428 633.196 778.122 612.706 788.871 590.653C803.356 561.505 812.752 530.096 816.655 497.782C818.691 481.951 819.261 465.966 818.358 450.031C816.708 415.897 808.84 382.352 795.14 351.045C776.263 307.752 746.827 269.886 709.527 240.914C672.226 211.943 628.254 192.792 581.636 185.215C535.018 177.637 487.244 181.876 442.689 197.543C398.133 213.21 358.22 239.804 326.603 274.89C299.956 304.57 279.768 339.464 267.32 377.359C266.624 378.829 266.624 381.306 264.457 381.306Z" fill="#4FC5DE"/>
<path d="M264.457 381.311L276.144 350.354C293.867 309.954 320.752 274.236 354.67 246.027C388.588 217.818 428.608 197.892 471.561 187.829C498.721 181.264 526.741 178.992 554.603 181.095C617.769 185.251 677.734 210.394 724.974 252.53C772.214 294.666 804.021 351.38 815.34 413.661C819.358 434.873 820.761 456.498 819.519 478.052C816.546 537.52 794.879 594.532 757.605 640.964C738.709 664.655 716.164 685.189 690.815 701.795C687.719 703.807 686.249 703.73 684.314 700.402L667.133 672.773C667.133 670.838 669.145 670.683 670.461 670.141C690.85 661.781 709.768 650.206 726.493 635.856C767.12 601.17 792.975 552.284 798.778 499.18C799.734 489.46 800.07 479.689 799.784 469.926C799.784 467.294 798.701 466.753 796.069 466.598C788.172 467.332 780.24 467.642 772.31 467.527C774.108 426.691 760.452 386.677 734.066 355.46C707.679 324.243 670.498 304.115 629.933 299.087C589.369 294.059 548.399 304.501 515.189 328.331C481.979 352.162 458.968 387.63 450.742 427.669C445.61 455.248 447.907 483.695 457.398 510.093C457.636 510.478 457.795 510.906 457.865 511.353C457.936 511.801 457.917 512.257 457.808 512.697C457.7 513.136 457.506 513.55 457.236 513.913C456.966 514.277 456.626 514.583 456.237 514.814C403.197 547.731 350.621 580.675 298.51 613.644C296.034 615.27 295.337 614.263 294.099 612.329C282.47 593.176 273.045 572.77 266.005 551.498C265.736 550.301 265.347 549.134 264.844 548.015C254.084 513.266 250.219 476.748 253.468 440.516C255.227 420.475 258.907 400.649 264.457 381.311Z" fill="#92C95B"/>
<path d="M772.312 467.29C777.275 466.426 782.292 465.908 787.327 465.742C790.5 465.742 793.595 465.742 796.768 465.742C799.942 465.742 800.87 465.742 801.103 469.07C802.366 504.495 794.73 539.672 778.891 571.384C766.802 595.519 750.168 617.093 729.901 634.923C711.379 651.106 690.231 664.01 667.368 673.078C655.466 677.171 643.317 680.506 630.993 683.061C587.054 691.635 541.524 685.941 501.05 666.809C490.814 661.864 480.912 656.254 471.409 650.015C449.823 634.893 431.154 615.988 416.305 594.214C415.725 593.126 415.052 592.09 414.293 591.119C414.04 590.776 413.863 590.384 413.772 589.968C413.682 589.552 413.68 589.121 413.768 588.705C413.856 588.288 414.03 587.895 414.281 587.55C414.532 587.206 414.852 586.919 415.221 586.707L473.885 550.255C476.052 548.862 476.904 549.327 478.374 551.107C497.101 576.992 523.042 596.783 552.955 608.008C582.867 619.232 615.425 621.391 646.558 614.214C677.69 607.038 706.017 590.845 727.998 567.659C749.979 544.473 764.639 515.323 770.145 483.852C771.384 478.048 771.384 473.017 772.158 467.522L772.312 467.29Z" fill="#E2E43B"/>
<path d="M966.643 176.987H1122.98V229.691H1071.59V459.084H1016.95V229.924H967.107V176.987H966.643ZM1138.15 176.987H1195.26C1226.22 176.987 1248.82 179.618 1261.97 185.345C1275.3 190.945 1286.5 200.651 1293.94 213.052C1302.24 226.862 1306.43 242.758 1306.01 258.869C1306.6 275.355 1301.97 291.608 1292.78 305.304C1282.63 318.648 1268.6 328.518 1252.61 333.553L1319.17 459.084H1260.58L1197.2 339.744H1191.7V459.161H1138.45V176.987H1138.15ZM1191.55 287.117H1208.57C1220.86 288.206 1233.21 285.876 1244.25 280.384C1247.66 277.824 1250.36 274.447 1252.12 270.565C1253.88 266.683 1254.63 262.421 1254.31 258.172C1254.44 252.401 1252.73 246.738 1249.44 241.997C1246.23 237.263 1241.59 233.682 1236.2 231.781C1226.48 229.297 1216.43 228.305 1206.41 228.84H1191.47V287.117H1191.55ZM1424.19 176.755H1478.36L1586.71 458.852H1530.84L1508.93 400.652H1393.39L1370.63 459.084H1314.83L1424.03 176.987L1424.19 176.755ZM1451.43 251.748L1413.12 349.031H1489.51L1451.51 251.981L1451.43 251.748ZM1604.51 176.755H1655.44L1776.95 362.498V176.755H1830.5V459.084H1779.11L1658.15 274.038V459.084H1604.75V176.987L1604.51 176.755ZM2018.1 215.451L1978.32 250.588C1964.31 231.084 1950.07 221.41 1935.68 221.41C1929.32 221.126 1923.08 223.161 1918.11 227.137C1916.09 228.596 1914.43 230.498 1913.27 232.699C1912.1 234.9 1911.45 237.34 1911.38 239.83C1911.38 244.737 1913.08 249.492 1916.18 253.296C1928.45 266.298 1941.67 278.378 1955.72 289.439C1976.36 306.62 1988.8 317.455 1993.03 321.944C2002.46 331.087 2010.3 341.731 2016.25 353.443C2020.82 363.798 2023.12 375.015 2022.98 386.335C2023.32 397.054 2021.35 407.721 2017.21 417.615C2013.07 427.508 2006.86 436.398 1998.99 443.683C1981.88 459.123 1959.4 467.237 1936.38 466.282C1917.73 466.728 1899.37 461.579 1883.67 451.5C1866.9 439.71 1853.55 423.688 1844.97 405.064L1890.25 377.899C1903.79 402.819 1919.43 415.202 1937.23 415.202C1945.65 415.552 1953.91 412.798 1960.44 407.463C1963.34 405.296 1965.7 402.496 1967.35 399.277C1969 396.058 1969.9 392.505 1969.96 388.889C1969.71 381.855 1967.19 375.093 1962.77 369.618C1953.5 358.812 1943.12 349.007 1931.81 340.363C1901.63 315.288 1881.92 295.966 1872.68 282.396C1864.05 270.182 1859.33 255.636 1859.14 240.681C1859.11 231.257 1861.08 221.933 1864.92 213.328C1868.76 204.722 1874.39 197.031 1881.43 190.763C1896.31 176.727 1916.15 169.159 1936.61 169.712C1950.6 169.715 1964.39 173.03 1976.85 179.386C1992.73 188.694 2006.73 200.902 2018.1 215.374V215.451ZM2182.79 169.944C2201.99 169.708 2221.03 173.443 2238.72 180.914C2256.41 188.386 2272.36 199.433 2285.57 213.362C2299.56 227.05 2310.6 243.456 2318.02 261.571C2325.43 279.685 2329.06 299.124 2328.68 318.693C2329.11 338.087 2325.56 357.363 2318.25 375.332C2310.95 393.302 2300.03 409.584 2286.19 423.174C2272.48 436.789 2256.23 447.57 2238.35 454.9C2220.48 462.23 2201.33 465.966 2182.02 465.895C2162.7 465.823 2143.58 461.944 2125.76 454.481C2107.94 447.018 2091.76 436.117 2078.16 422.4H2077.7C2057.32 401.641 2043.49 375.356 2037.92 346.807C2032.35 318.258 2035.29 288.703 2046.37 261.808C2057.44 234.913 2076.18 211.863 2100.24 195.519C2124.3 179.174 2152.63 170.255 2181.71 169.867L2182.79 169.944ZM2181.94 222.649C2169.72 222.372 2157.57 224.645 2146.27 229.322C2134.97 233.999 2124.77 240.977 2116.31 249.814C2107.54 259.01 2100.69 269.868 2096.17 281.75C2091.65 293.633 2089.55 306.298 2090 319.003C2089.4 333.095 2092.1 347.132 2097.89 359.993C2103.68 372.854 2112.4 384.181 2123.36 393.068C2140.15 407.067 2161.4 414.59 2183.26 414.274C2195.37 414.432 2207.39 412.056 2218.53 407.298C2229.67 402.54 2239.7 395.505 2247.96 386.644C2256.67 377.637 2263.48 366.976 2268 355.293C2272.52 343.609 2274.65 331.138 2274.27 318.616C2274.58 306.038 2272.35 293.528 2267.72 281.828C2263.1 270.129 2256.16 259.478 2247.34 250.51C2238.98 241.521 2228.83 234.388 2217.53 229.575C2206.24 224.762 2194.06 222.376 2181.79 222.571L2181.94 222.649ZM2370.4 176.987H2427.51C2458.47 176.987 2480.83 179.618 2494.22 185.345C2507.55 190.945 2518.75 200.651 2526.19 213.052C2534.49 226.862 2538.68 242.758 2538.26 258.869C2538.87 275.357 2534.24 291.615 2525.03 305.304C2514.97 318.639 2501.01 328.512 2485.09 333.553L2551.8 459.084H2492.83L2429.45 339.667H2423.95V459.084H2370.4V176.987ZM2423.95 287.117H2440.98C2453.26 288.206 2465.61 285.876 2476.66 280.384C2480.03 277.803 2482.69 274.416 2484.41 270.534C2486.13 266.653 2486.84 262.402 2486.48 258.172C2486.81 252.464 2485.27 246.804 2482.1 242.044C2478.94 237.285 2474.31 233.683 2468.92 231.781C2459.16 229.296 2449.09 228.304 2439.04 228.84H2424.11V287.117H2423.95ZM2831.35 223.036L2793.58 260.416C2783.14 248.527 2770.28 238.996 2755.87 232.458C2741.46 225.919 2725.82 222.523 2710 222.494C2697.13 222.155 2684.32 224.421 2672.35 229.156C2660.38 233.891 2649.5 240.996 2640.34 250.046C2631.26 258.671 2624.08 269.091 2619.24 280.642C2614.4 292.194 2612.02 304.624 2612.25 317.145C2612.09 330.033 2614.62 342.813 2619.67 354.672C2624.72 366.53 2632.18 377.208 2641.58 386.025C2651.03 395.338 2662.26 402.653 2674.6 407.533C2686.94 412.413 2700.14 414.758 2713.4 414.428C2729.77 415.12 2746.01 411.234 2760.3 403.206C2773.78 394.311 2784.34 381.629 2790.64 366.754H2709.07V316.449H2850.85L2851.24 328.29C2851.22 353.007 2844.59 377.269 2832.04 398.563C2820.27 419.544 2803.12 437.013 2782.36 449.178C2760.43 461.232 2735.71 467.292 2710.69 466.746C2683.45 467.138 2656.58 460.472 2632.68 447.398C2609.77 434.787 2590.85 416.022 2578.04 393.223C2564.81 370.057 2557.9 343.822 2558 317.145C2557.52 281.158 2570.78 246.342 2595.07 219.785C2609.27 203.516 2626.9 190.599 2646.69 181.967C2666.48 173.335 2687.95 169.202 2709.53 169.867C2733.17 169.722 2756.6 174.355 2778.41 183.488C2798.56 192.857 2816.52 206.358 2831.12 223.113L2831.35 223.036ZM1047.36 502.966L1123.21 665.491H1105.72L1080.26 612.167H1009.98L984.83 665.568H966.72L1043.65 503.043L1047.36 502.966ZM1045.35 537.019L1017.26 596.147H1073.06L1045.58 537.019H1045.35ZM1148.44 665.413V502.888H1151.92L1260.27 626.717V502.888H1276.45V665.413H1272.81L1165.16 542.514V665.413H1148.44ZM1381.93 502.888L1457.7 665.413H1440.29L1414.75 612.167H1344.47L1319.17 665.568H1300.98L1377.68 503.043L1381.93 502.888ZM1379.92 536.941L1352.06 596.069H1407.78L1379.92 536.941ZM1482.7 502.888H1499.03V649.548H1561.56V665.027H1482.54V502.501L1482.7 502.888ZM1574.49 502.888H1593.14L1635.09 570.685L1676.34 502.888H1694.76L1643.13 588.021V665.413H1626.88V588.021L1574.25 503.275L1574.49 502.888ZM1704.97 518.367V502.888H1793.9V518.367H1757.6V665.413H1741.11V518.754L1704.97 518.367ZM1815.02 502.888H1831.35V665.413H1815.02V502.888ZM2019.81 532.762L2006.96 542.514C2000.29 533.589 1991.55 526.418 1981.5 521.617C1971.32 516.79 1960.18 514.355 1948.91 514.497C1936.31 514.403 1923.91 517.605 1912.93 523.784C1902.23 529.645 1893.36 538.35 1887.31 548.937C1881.33 559.643 1878.29 571.737 1878.49 583.996C1878.26 593.23 1879.96 602.41 1883.48 610.95C1887 619.491 1892.26 627.206 1898.92 633.605C1905.66 640.245 1913.69 645.441 1922.52 648.874C1931.34 652.307 1940.77 653.906 1950.23 653.572C1961.09 653.83 1971.86 651.632 1981.75 647.143C1991.64 642.653 2000.39 635.989 2007.34 627.646L2020.11 637.32C2012.03 647.497 2001.63 655.591 1989.78 660.925C1977.07 666.788 1963.22 669.774 1949.22 669.67C1936.61 670.274 1924.02 668.042 1912.38 663.14C1900.74 658.239 1890.35 650.791 1881.97 641.344C1867.99 625.199 1860.54 604.417 1861.07 583.067C1860.88 571.851 1863.03 560.718 1867.41 550.387C1871.78 540.056 1878.27 530.756 1886.46 523.088C1894.74 515.021 1904.55 508.699 1915.32 504.498C1926.09 500.297 1937.59 498.302 1949.15 498.632C1963.31 498.405 1977.34 501.423 1990.16 507.455C2002.11 513.175 2012.43 521.796 2020.19 532.53L2019.81 532.762ZM2035.67 635.385L2049.52 626.64C2059.22 644.75 2070.47 653.805 2083.27 653.805C2088.67 653.834 2093.99 652.503 2098.75 649.935C2103.15 647.712 2106.85 644.317 2109.44 640.125C2112.04 635.933 2113.42 631.105 2113.45 626.175C2113.31 620.408 2111.36 614.83 2107.88 610.232C2099.93 600.091 2090.52 591.196 2079.94 583.841C2070.69 577.452 2062.22 569.997 2054.71 561.63C2049.06 554.574 2045.95 545.823 2045.89 536.786C2045.86 530.024 2047.62 523.374 2050.99 517.516C2054.56 511.979 2059.56 507.513 2065.47 504.591C2071.62 501.178 2078.55 499.418 2085.59 499.483C2093.14 499.464 2100.56 501.44 2107.1 505.21C2115.54 510.659 2122.79 517.768 2128.39 526.106L2114.84 535.935C2110.66 529.713 2105.42 524.266 2099.37 519.837C2095.08 517.294 2090.19 515.957 2085.2 515.968C2079.24 515.756 2073.43 517.896 2069.03 521.927C2066.99 523.79 2065.38 526.066 2064.3 528.602C2063.22 531.138 2062.7 533.876 2062.76 536.632C2062.77 540.174 2063.51 543.677 2064.93 546.925C2066.95 550.999 2069.74 554.65 2073.13 557.683C2079.8 563.532 2086.83 568.96 2094.18 573.935C2105.31 581.485 2115.1 590.851 2123.12 601.642C2128.08 608.843 2130.77 617.358 2130.86 626.098C2130.93 631.909 2129.78 637.67 2127.47 643.005C2125.16 648.339 2121.76 653.127 2117.48 657.055C2113.18 661.294 2108.07 664.628 2102.46 666.861C2096.85 669.094 2090.85 670.181 2084.82 670.057C2075.29 670.209 2065.94 667.514 2057.96 662.318C2048.37 655.313 2040.63 646.067 2035.44 635.385H2035.67Z" fill="white"/>
</svg>
